{"title":"Pirates of the Caribbean On Stranger Tides TS x264 Feel-Free","uid":6421850,"size":1365359664,"categoryP":"video","categoryS":"movies","magnet":"?xt=urn:btih:747b21f9c91a38cf876b877357ddd058440273b8&amp;dn=Pirates+of+the+Caribbean+On+Stranger+Tides+TS+x264+Feel-Free&amp;tr=udp%3A%2F%2Ftracker.openbittorrent.com%3A80&amp;tr=udp%3A%2F%2Fopen.demonii.com%3A1337&amp;tr=udp%3A%2F%2Ftracker.coppersurfer.tk%3A6969&amp;tr=udp%3A%2F%2Fexodus.desync.com%3A6969","seeders":0,"leechers":1,"uploader":"rjaa","files":11,"time":1306329684,"description":"Genre:Action | Adventure | Fantasy\nLanguage:English\nIMDb:http://www.imdb.com/title/tt1298650/\nSource:Piraty.Karibskogo.morya.4.2011.D.TS/Imagine Thanks!\nSubtitles:Romana\n\nFormat : MPEG-4\nFormat profile : Base Media\nCodec ID : isom\nFile size : 1.27 GiB\nDuration : 2h 7mn\nOverall bit rate : 1 428 Kbps\n\nVideo\nID : 1\nFormat : AVC\nFormat/Info : Advanced Video Codec\nFormat profile : &lt;a class=&quot;__cf_email__&quot; href=&quot;/cdn-cgi/l/email-protection&quot; data-cfemail=&quot;763e1f111e363a425847&quot;&gt;[email&amp;#160;protected]&lt;/a&gt;&lt;script cf-hash='f9e31' type=&quot;text/javascript&quot;&gt;\n/* &lt;![CDATA[ */!function(){try{var t=&quot;currentScript&quot;in document?document.currentScript:function(){for(var t=document.getElementsByTagName(&quot;script&quot;),e=t.length;e--;)if(t[e].getAttribute(&quot;cf-hash&quot;))return t[e]}();if(t&amp;&amp;t.previousSibling){var e,r,n,i,c=t.previousSibling,a=c.getAttribute(&quot;data-cfemail&quot;);if(a){for(e=&quot;&quot;,r=parseInt(a.substr(0,2),16),n=2;a.length-n;n+=2)i=parseInt(a.substr(n,2),16)^r,e+=String.fromCharCode(i);e=document.createTextNode(e),c.parentNode.replaceChild(e,c)}}}catch(u){}}();/* ]]&gt; */&lt;/script&gt;\nFormat settings, CABAC : Yes\nFormat settings, ReFrames : 3 frames\nCodec ID : avc1\nCodec ID/Info : Advanced Video Coding\nDuration : 2h 7mn\nBit rate mode : Variable\nBit rate : 1 193 Kbps\nMaximum bit rate : 4 496 Kbps\nWidth : 720 pixels\nHeight : 272 pixels\nDisplay aspect ratio : 2.647\nFrame rate mode : Constant\nFrame rate : 23.976 fps\nColor space : YUV\nChroma subsampling : 4:2:0\nBit depth : 8 bits\nScan type : Progressive\nBits/(Pixel*Frame) : 0.254\nStream size : 1.07 GiB (84%)\nWriting library : x264\n\nAudio\nID : 2\nFormat : AAC\nFormat/Info : Advanced Audio Codec\nFormat version : Version 4\nFormat profile : LC\nFormat settings, SBR : No\nCodec ID : 40\nDuration : 2h 7mn\nBit rate mode : Variable\nBit rate : 224 Kbps\nMaximum bit rate : 271 Kbps\nChannel(s) : 2 channels\nChannel positions : Front: L R\nSampling rate : 48.0 KHz\nStream size : 204 MiB (16%)\n\n\nPlot:\nJack Sparrow and Barbossa embark on a quest to find the elusive fountain of youth, only to discover that Blackbeard and his daughter are after it too.\n\n\nscreenshots:\n &lt;a href=&quot;\nhttp://img835.imageshack.us/img835/1817/39675932.png&quot; rel=&quot;nofollow&quot; target=&quot;_NEW&quot;&gt;\nhttp://img835.imageshack.us/img835/1817/39675932.png&lt;/a&gt;\n &lt;a href=&quot;\nhttp://img824.imageshack.us/img824/6626/62531086.png&quot; rel=&quot;nofollow&quot; target=&quot;_NEW&quot;&gt;\nhttp://img824.imageshack.us/img824/6626/62531086.png&lt;/a&gt;\n &lt;a href=&quot;\nhttp://img543.imageshack.us/img543/599/29019959.png&quot; rel=&quot;nofollow&quot; target=&quot;_NEW&quot;&gt;\nhttp://img543.imageshack.us/img543/599/29019959.png&lt;/a&gt;\n &lt;a href=&quot;\nhttp://img705.imageshack.us/img705/1652/11429659.png&quot; rel=&quot;nofollow&quot; target=&quot;_NEW&quot;&gt;\nhttp://img705.imageshack.us/img705/1652/11429659.png&lt;/a&gt;\n &lt;a href=&quot;\nhttp://img827.imageshack.us/img827/613/65804954.png&quot; rel=&quot;nofollow&quot; target=&quot;_NEW&quot;&gt;\nhttp://img827.imageshack.us/img827/613/65804954.png&lt;/a&gt;","torrent":{"xt":"urn:btih:747b21f9c91a38cf876b877357ddd058440273b8","amp;dn":"Pirates+of+the+Caribbean+On+Stranger+Tides+TS+x264+Feel-Free","amp;tr":["udp%3A%2F%2Ftracker.openbittorrent.com%3A80","udp%3A%2F%2Fopen.demonii.com%3A1337","udp%3A%2F%2Ftracker.coppersurfer.tk%3A6969","udp%3A%2F%2Fexodus.desync.com%3A6969"],"infoHash":"747b21f9c91a38cf876b877357ddd058440273b8","infoHashBuffer":{"type":"Buffer","data":[116,123,33,249,201,26,56,207,135,107,135,115,87,221,208,88,68,2,115,184]},"announce":[],"urlList":[]}}